<?xml version="1.0" encoding="utf-8"?>
<!-- Generator: Adobe Illustrator 19.0.0, SVG Export Plug-In . SVG Version: 6.00 Build 0)  -->
<svg version="1.1" id="Layer_1" xmlns="http://www.w3.org/2000/svg" xmlns:xlink="http://www.w3.org/1999/xlink" x="0px" y="0px"
	 viewBox="0 0 500 500" style="enable-background:new 0 0 500 500;" xml:space="preserve">
<style type="text/css">
	.st0{fill:#FFFFFF;}
</style>
<g id="XMLID_1_">
	<path id="XMLID_2_" d="M74.6,100.8h350.7c3.9,0,7.1,3.2,7.1,7.1v284.2c0,3.9-3.2,7.1-7.1,7.1H74.6c-3.9,0-7.1-3.2-7.1-7.1V107.9
		C67.5,104,70.7,100.8,74.6,100.8z"/>
	<path id="XMLID_3_" class="st0" d="M107.8,131.8c-1.2-1.2-2.7-1.8-4.4-1.8c-1.7,0-3.2,0.6-4.4,1.8c-1.2,1.2-1.8,2.7-1.8,4.4
		s0.6,3.2,1.8,4.4l19.2,19.2L98.9,179c-1.2,1.2-1.8,2.7-1.9,4.4c0,1.7,0.6,3.2,1.8,4.4c1.2,1.2,2.7,1.8,4.4,1.8
		c1.7,0,3.2-0.6,4.5-1.8l21.3-21.3c4.5-4.5,4.5-8.9,0-13.4L107.8,131.8z M191.2,179c-1.2-1.2-2.7-1.8-4.5-1.8v0h-41.1v0
		c-1.7,0-3.2,0.6-4.5,1.8c-1.2,1.2-1.8,2.7-1.8,4.5s0.6,3.2,1.8,4.5c1.2,1.2,2.7,1.8,4.5,1.8v0h41.1v0c1.7,0,3.2-0.6,4.5-1.8
		c1.2-1.2,1.8-2.7,1.8-4.5S192.5,180.2,191.2,179z"/>
</g>
</svg>
